<mxfile host="app.diagrams.net" agent="Mozilla/5.0 (Macintosh; Intel Mac OS X 10_15_7) AppleWebKit/537.36 (KHTML, like Gecko) Chrome/126.0.0.0 Safari/537.36" version="24.7.5">
  <diagram name="tf-alb-asg" id="aCf4mz3CWXnx07u85e5F">
    <mxGraphModel dx="1981" dy="1448" grid="1" gridSize="10" guides="1" tooltips="1" connect="1" arrows="1" fold="1" page="1" pageScale="1" pageWidth="850" pageHeight="1100" background="#000000" math="0" shadow="0">
      <root>
        <mxCell id="0" />
        <mxCell id="1" parent="0" />
        <mxCell id="C3LEZmclD4hV7QYWi0aZ-2" value="VPC" style="sketch=0;outlineConnect=0;gradientColor=none;html=1;whiteSpace=wrap;fontSize=12;fontStyle=0;shape=mxgraph.aws4.group;grIcon=mxgraph.aws4.group_vpc;strokeColor=#879196;fillColor=none;verticalAlign=top;align=left;spacingLeft=30;fontColor=#879196;dashed=0;" parent="1" vertex="1">
          <mxGeometry x="-227" y="230" width="920" height="620" as="geometry" />
        </mxCell>
        <mxCell id="C3LEZmclD4hV7QYWi0aZ-1" value="&lt;font color=&quot;#b3b3b3&quot;&gt;Region&lt;/font&gt;" style="shape=mxgraph.ibm.box;prType=region;fontStyle=0;verticalAlign=top;align=left;spacingLeft=32;spacingTop=4;fillColor=none;rounded=0;whiteSpace=wrap;html=1;strokeColor=#919191;strokeWidth=2;dashed=0;container=1;spacing=-4;collapsible=0;expand=0;recursiveResize=0;" parent="1" vertex="1">
          <mxGeometry x="-197" y="255" width="860" height="570" as="geometry" />
        </mxCell>
        <mxCell id="C3LEZmclD4hV7QYWi0aZ-15" value="Private subnet" style="points=[[0,0],[0.25,0],[0.5,0],[0.75,0],[1,0],[1,0.25],[1,0.5],[1,0.75],[1,1],[0.75,1],[0.5,1],[0.25,1],[0,1],[0,0.75],[0,0.5],[0,0.25]];outlineConnect=0;gradientColor=none;html=1;whiteSpace=wrap;fontSize=12;fontStyle=0;container=1;pointerEvents=0;collapsible=0;recursiveResize=0;shape=mxgraph.aws4.group;grIcon=mxgraph.aws4.group_security_group;grStroke=0;strokeColor=#147EBA;fillColor=#E6F2F8;verticalAlign=top;align=left;spacingLeft=30;fontColor=#147EBA;dashed=0;" parent="C3LEZmclD4hV7QYWi0aZ-1" vertex="1">
          <mxGeometry x="550" y="310" width="250" height="210" as="geometry" />
        </mxCell>
        <mxCell id="oQwIfbcGYgc3eM3Sqw6P-22" value="" style="edgeStyle=orthogonalEdgeStyle;rounded=0;orthogonalLoop=1;jettySize=auto;html=1;strokeWidth=3;fillColor=#e1d5e7;strokeColor=#9673a6;" parent="C3LEZmclD4hV7QYWi0aZ-1" source="C3LEZmclD4hV7QYWi0aZ-3" target="C3LEZmclD4hV7QYWi0aZ-4" edge="1">
          <mxGeometry relative="1" as="geometry">
            <Array as="points">
              <mxPoint x="130" y="290" />
              <mxPoint x="130" y="290" />
            </Array>
          </mxGeometry>
        </mxCell>
        <mxCell id="C3LEZmclD4hV7QYWi0aZ-3" value="&lt;font color=&quot;#ffffff&quot;&gt;Internet&lt;br&gt;gateway&lt;/font&gt;" style="sketch=0;outlineConnect=0;fontColor=#232F3E;gradientColor=none;strokeColor=#232F3E;fillColor=#ffffff;dashed=0;verticalLabelPosition=bottom;verticalAlign=top;align=center;html=1;fontSize=12;fontStyle=0;aspect=fixed;shape=mxgraph.aws4.resourceIcon;resIcon=mxgraph.aws4.internet_gateway;" parent="C3LEZmclD4hV7QYWi0aZ-1" vertex="1">
          <mxGeometry x="13" y="230" width="94" height="94" as="geometry" />
        </mxCell>
        <mxCell id="C3LEZmclD4hV7QYWi0aZ-5" value="Public subnet" style="points=[[0,0],[0.25,0],[0.5,0],[0.75,0],[1,0],[1,0.25],[1,0.5],[1,0.75],[1,1],[0.75,1],[0.5,1],[0.25,1],[0,1],[0,0.75],[0,0.5],[0,0.25]];outlineConnect=0;gradientColor=none;html=1;whiteSpace=wrap;fontSize=12;fontStyle=0;container=1;pointerEvents=0;collapsible=0;recursiveResize=0;shape=mxgraph.aws4.group;grIcon=mxgraph.aws4.group_security_group;grStroke=0;strokeColor=#248814;fillColor=#E9F3E6;verticalAlign=top;align=left;spacingLeft=30;fontColor=#248814;dashed=0;" parent="C3LEZmclD4hV7QYWi0aZ-1" vertex="1">
          <mxGeometry x="310" y="61" width="200" height="210" as="geometry" />
        </mxCell>
        <mxCell id="C3LEZmclD4hV7QYWi0aZ-6" value="Public subnet" style="points=[[0,0],[0.25,0],[0.5,0],[0.75,0],[1,0],[1,0.25],[1,0.5],[1,0.75],[1,1],[0.75,1],[0.5,1],[0.25,1],[0,1],[0,0.75],[0,0.5],[0,0.25]];outlineConnect=0;gradientColor=none;html=1;whiteSpace=wrap;fontSize=12;fontStyle=0;container=1;pointerEvents=0;collapsible=0;recursiveResize=0;shape=mxgraph.aws4.group;grIcon=mxgraph.aws4.group_security_group;grStroke=0;strokeColor=#248814;fillColor=#E9F3E6;verticalAlign=top;align=left;spacingLeft=30;fontColor=#248814;dashed=0;" parent="C3LEZmclD4hV7QYWi0aZ-1" vertex="1">
          <mxGeometry x="310" y="311" width="200" height="210" as="geometry" />
        </mxCell>
        <mxCell id="C3LEZmclD4hV7QYWi0aZ-9" value="Private subnet" style="points=[[0,0],[0.25,0],[0.5,0],[0.75,0],[1,0],[1,0.25],[1,0.5],[1,0.75],[1,1],[0.75,1],[0.5,1],[0.25,1],[0,1],[0,0.75],[0,0.5],[0,0.25]];outlineConnect=0;gradientColor=none;html=1;whiteSpace=wrap;fontSize=12;fontStyle=0;container=1;pointerEvents=0;collapsible=0;recursiveResize=0;shape=mxgraph.aws4.group;grIcon=mxgraph.aws4.group_security_group;grStroke=0;strokeColor=#147EBA;fillColor=#E6F2F8;verticalAlign=top;align=left;spacingLeft=30;fontColor=#147EBA;dashed=0;" parent="C3LEZmclD4hV7QYWi0aZ-1" vertex="1">
          <mxGeometry x="550" y="60" width="250" height="450" as="geometry" />
        </mxCell>
        <mxCell id="oQwIfbcGYgc3eM3Sqw6P-4" value="" style="group" parent="C3LEZmclD4hV7QYWi0aZ-9" vertex="1" connectable="0">
          <mxGeometry x="45" y="40" width="165" height="390" as="geometry" />
        </mxCell>
        <mxCell id="oQwIfbcGYgc3eM3Sqw6P-1" value="Auto Scaling Group" style="sketch=0;outlineConnect=0;gradientColor=none;html=1;whiteSpace=wrap;fontSize=12;fontStyle=0;shape=mxgraph.aws4.groupCenter;grIcon=mxgraph.aws4.group_auto_scaling_group;grStroke=0;strokeColor=#879196;fillColor=#ECEFEF;verticalAlign=top;align=center;fontColor=#879196;dashed=0;spacingTop=25;" parent="oQwIfbcGYgc3eM3Sqw6P-4" vertex="1">
          <mxGeometry width="165" height="390" as="geometry" />
        </mxCell>
        <mxCell id="oQwIfbcGYgc3eM3Sqw6P-2" value="Amazon EC2" style="sketch=0;outlineConnect=0;fontColor=#232F3E;gradientColor=none;strokeColor=#ffffff;fillColor=#232F3E;dashed=0;verticalLabelPosition=middle;verticalAlign=bottom;align=center;html=1;whiteSpace=wrap;fontSize=10;fontStyle=1;spacing=3;shape=mxgraph.aws4.productIcon;prIcon=mxgraph.aws4.ec2;" parent="oQwIfbcGYgc3eM3Sqw6P-4" vertex="1">
          <mxGeometry x="50" y="62" width="70" height="100" as="geometry" />
        </mxCell>
        <mxCell id="oQwIfbcGYgc3eM3Sqw6P-3" value="Amazon EC2" style="sketch=0;outlineConnect=0;fontColor=#232F3E;gradientColor=none;strokeColor=#ffffff;fillColor=#232F3E;dashed=0;verticalLabelPosition=middle;verticalAlign=bottom;align=center;html=1;whiteSpace=wrap;fontSize=10;fontStyle=1;spacing=3;shape=mxgraph.aws4.productIcon;prIcon=mxgraph.aws4.ec2;" parent="oQwIfbcGYgc3eM3Sqw6P-4" vertex="1">
          <mxGeometry x="49.5" y="267" width="70" height="100" as="geometry" />
        </mxCell>
        <mxCell id="oQwIfbcGYgc3eM3Sqw6P-9" value="ALB Target Group" style="outlineConnect=0;gradientColor=none;html=1;whiteSpace=wrap;fontSize=12;fontStyle=0;strokeColor=#858B94;fillColor=none;verticalAlign=top;align=center;fontColor=#858B94;dashed=1;spacingTop=3;" parent="C3LEZmclD4hV7QYWi0aZ-9" vertex="1">
          <mxGeometry x="29" y="10" width="200" height="440" as="geometry" />
        </mxCell>
        <mxCell id="C3LEZmclD4hV7QYWi0aZ-8" value="NAT gateway" style="sketch=0;outlineConnect=0;fontColor=#232F3E;gradientColor=none;strokeColor=#232F3E;fillColor=#ffffff;dashed=0;verticalLabelPosition=bottom;verticalAlign=top;align=center;html=1;fontSize=12;fontStyle=0;aspect=fixed;shape=mxgraph.aws4.resourceIcon;resIcon=mxgraph.aws4.nat_gateway;" parent="C3LEZmclD4hV7QYWi0aZ-1" vertex="1">
          <mxGeometry x="386" y="120" width="60" height="60" as="geometry" />
        </mxCell>
        <mxCell id="oQwIfbcGYgc3eM3Sqw6P-8" value="" style="edgeStyle=orthogonalEdgeStyle;rounded=0;orthogonalLoop=1;jettySize=auto;html=1;entryX=0;entryY=0.5;entryDx=0;entryDy=0;strokeWidth=3;fillColor=#e1d5e7;strokeColor=#9673a6;" parent="C3LEZmclD4hV7QYWi0aZ-1" source="C3LEZmclD4hV7QYWi0aZ-4" target="oQwIfbcGYgc3eM3Sqw6P-9" edge="1">
          <mxGeometry relative="1" as="geometry" />
        </mxCell>
        <mxCell id="C3LEZmclD4hV7QYWi0aZ-4" value="Application Load Balancer" style="sketch=0;outlineConnect=0;fontColor=#232F3E;gradientColor=none;strokeColor=#ffffff;fillColor=#232F3E;dashed=0;verticalLabelPosition=middle;verticalAlign=bottom;align=center;html=1;whiteSpace=wrap;fontSize=10;fontStyle=1;spacing=3;shape=mxgraph.aws4.productIcon;prIcon=mxgraph.aws4.application_load_balancer;" parent="C3LEZmclD4hV7QYWi0aZ-1" vertex="1">
          <mxGeometry x="211" y="230" width="80" height="120" as="geometry" />
        </mxCell>
        <mxCell id="oQwIfbcGYgc3eM3Sqw6P-11" value="NAT gateway" style="sketch=0;outlineConnect=0;fontColor=#232F3E;gradientColor=none;strokeColor=#232F3E;fillColor=#ffffff;dashed=0;verticalLabelPosition=bottom;verticalAlign=top;align=center;html=1;fontSize=12;fontStyle=0;aspect=fixed;shape=mxgraph.aws4.resourceIcon;resIcon=mxgraph.aws4.nat_gateway;" parent="C3LEZmclD4hV7QYWi0aZ-1" vertex="1">
          <mxGeometry x="386" y="370" width="60" height="60" as="geometry" />
        </mxCell>
        <mxCell id="oQwIfbcGYgc3eM3Sqw6P-15" value="" style="edgeStyle=orthogonalEdgeStyle;html=1;endArrow=none;elbow=vertical;startArrow=block;startFill=1;strokeColor=#9673a6;rounded=0;entryX=0;entryY=0.25;entryDx=0;entryDy=0;strokeWidth=3;fillColor=#e1d5e7;" parent="C3LEZmclD4hV7QYWi0aZ-1" source="C3LEZmclD4hV7QYWi0aZ-8" target="oQwIfbcGYgc3eM3Sqw6P-9" edge="1">
          <mxGeometry width="100" relative="1" as="geometry">
            <mxPoint x="240" y="545" as="sourcePoint" />
            <mxPoint x="340" y="545" as="targetPoint" />
          </mxGeometry>
        </mxCell>
        <mxCell id="oQwIfbcGYgc3eM3Sqw6P-16" value="" style="edgeStyle=orthogonalEdgeStyle;html=1;endArrow=none;elbow=vertical;startArrow=block;startFill=1;strokeColor=#9673a6;rounded=0;entryX=0;entryY=0.75;entryDx=0;entryDy=0;strokeWidth=3;fillColor=#e1d5e7;" parent="C3LEZmclD4hV7QYWi0aZ-1" source="oQwIfbcGYgc3eM3Sqw6P-11" target="oQwIfbcGYgc3eM3Sqw6P-9" edge="1">
          <mxGeometry width="100" relative="1" as="geometry">
            <mxPoint x="360" y="545" as="sourcePoint" />
            <mxPoint x="460" y="545" as="targetPoint" />
          </mxGeometry>
        </mxCell>
        <mxCell id="oQwIfbcGYgc3eM3Sqw6P-19" value="" style="edgeStyle=orthogonalEdgeStyle;html=1;endArrow=none;elbow=vertical;startArrow=block;startFill=1;strokeColor=#9673a6;rounded=0;strokeWidth=3;fillColor=#e1d5e7;" parent="C3LEZmclD4hV7QYWi0aZ-1" source="C3LEZmclD4hV7QYWi0aZ-3" target="C3LEZmclD4hV7QYWi0aZ-8" edge="1">
          <mxGeometry width="100" relative="1" as="geometry">
            <mxPoint x="191" y="149.5" as="sourcePoint" />
            <mxPoint x="291" y="149.5" as="targetPoint" />
            <Array as="points">
              <mxPoint x="170" y="277" />
              <mxPoint x="170" y="150" />
            </Array>
          </mxGeometry>
        </mxCell>
        <mxCell id="oQwIfbcGYgc3eM3Sqw6P-21" value="" style="edgeStyle=orthogonalEdgeStyle;html=1;endArrow=none;elbow=vertical;startArrow=block;startFill=1;strokeColor=#9673a6;rounded=0;strokeWidth=3;fillColor=#e1d5e7;" parent="C3LEZmclD4hV7QYWi0aZ-1" source="C3LEZmclD4hV7QYWi0aZ-3" target="oQwIfbcGYgc3eM3Sqw6P-11" edge="1">
          <mxGeometry width="100" relative="1" as="geometry">
            <mxPoint x="206" y="402" as="sourcePoint" />
            <mxPoint x="306" y="402" as="targetPoint" />
            <Array as="points">
              <mxPoint x="170" y="277" />
              <mxPoint x="170" y="400" />
            </Array>
          </mxGeometry>
        </mxCell>
        <mxCell id="07u1iNSh1zsjaypmDzk7-2" value="" style="edgeStyle=orthogonalEdgeStyle;rounded=0;orthogonalLoop=1;jettySize=auto;html=1;strokeWidth=3;fillColor=#e1d5e7;strokeColor=#9673a6;" edge="1" parent="1" source="07u1iNSh1zsjaypmDzk7-1" target="C3LEZmclD4hV7QYWi0aZ-3">
          <mxGeometry relative="1" as="geometry" />
        </mxCell>
        <mxCell id="07u1iNSh1zsjaypmDzk7-1" value="&lt;font color=&quot;#ffffff&quot;&gt;Users&lt;/font&gt;" style="sketch=0;outlineConnect=0;fontColor=#232F3E;gradientColor=none;strokeColor=#232F3E;fillColor=#ffffff;dashed=0;verticalLabelPosition=bottom;verticalAlign=top;align=center;html=1;fontSize=12;fontStyle=0;aspect=fixed;shape=mxgraph.aws4.resourceIcon;resIcon=mxgraph.aws4.users;" vertex="1" parent="1">
          <mxGeometry x="-360" y="491" width="80" height="80" as="geometry" />
        </mxCell>
      </root>
    </mxGraphModel>
  </diagram>
</mxfile>
